<svg xmlns="http://www.w3.org/2000/svg" width="1200" height="600" viewBox="0 0 1200 600" fill="none">
<path fill-rule="evenodd" clip-rule="evenodd" d="M721.918 100.339C741.219 94.4527 761.639 105.326 767.527 124.632C773.414 143.937 762.538 164.355 743.235 170.241C723.932 176.128 703.512 165.254 697.624 145.949C691.738 126.645 702.613 106.226 721.918 100.339Z" fill="#F9ECD7"/>
<path d="M943.522 216.911C935.162 223.808 924.961 230.394 913.792 233.8C890.657 240.855 873.58 233.461 865.335 206.425L840.844 126.115L910.249 104.95L899.701 70.3617L830.296 91.527L809.322 22.7466L767.837 35.3975C787.947 101.342 803.438 152.14 823.851 219.078C838.521 267.185 872.78 288.024 920.645 273.427C933.41 269.534 946.486 263.808 961.022 252.859L943.521 216.914L943.522 216.911Z" fill="#F9ECD7"/>
<path fill-rule="evenodd" clip-rule="evenodd" d="M958.593 125.252C977.894 119.366 998.314 130.239 1004.2 149.545C1010.09 168.851 999.213 189.268 979.91 195.154C960.607 201.041 940.186 190.168 934.299 170.862C928.412 151.558 939.288 131.139 958.593 125.252Z" fill="#F9ECD7"/>
<path d="M1180.2 241.825C1171.84 248.721 1161.64 255.307 1150.47 258.713C1127.33 265.768 1110.26 258.374 1102.01 231.339L1077.52 151.028L1146.92 129.863L1136.38 95.275L1066.97 116.44L1046 47.6599L1004.51 60.3108C1024.62 126.255 1040.11 177.053 1060.53 243.991C1075.2 292.098 1109.46 312.937 1157.32 298.34C1170.09 294.448 1183.16 288.721 1197.7 277.772L1180.2 241.827L1180.2 241.825Z" fill="#F9ECD7"/>
<path fill-rule="evenodd" clip-rule="evenodd" d="M645.102 316.253C664.403 310.367 684.823 321.24 690.71 340.546C696.598 359.852 685.722 380.269 666.419 386.156C647.115 392.042 626.695 381.169 620.808 361.863C614.921 342.559 625.796 322.14 645.102 316.253Z" fill="#F9ECD7"/>
<path d="M866.706 432.825C858.346 439.722 848.146 446.308 836.977 449.714C813.841 456.769 796.764 449.375 788.52 422.339L764.029 342.029L833.434 320.864L822.886 286.276L753.481 307.441L732.506 238.661L691.021 251.311C711.131 317.256 726.622 368.054 747.035 434.992C761.706 483.099 795.964 503.938 843.83 489.341C856.595 485.448 869.671 479.722 884.207 468.773L866.705 432.827L866.706 432.825Z" fill="#F9ECD7"/>
<path fill-rule="evenodd" clip-rule="evenodd" d="M125.981 159.276C145.282 153.39 165.702 164.264 171.589 183.569C177.477 202.875 166.601 223.292 147.298 229.179C127.994 235.065 107.574 224.192 101.687 204.886C95.8001 185.583 106.675 165.164 125.981 159.276Z" fill="#F9ECD7"/>
<path d="M347.584 275.849C339.224 282.745 329.024 289.332 317.855 292.738C294.719 299.793 277.642 292.398 269.398 265.363L244.907 185.053L314.312 163.888L303.764 129.299L234.359 150.465L213.384 81.6843L171.899 94.3352C192.009 160.279 207.5 211.077 227.913 278.016C242.584 326.122 276.842 346.961 324.708 332.365C337.473 328.472 350.549 322.746 365.085 311.796L347.583 275.851L347.584 275.849Z" fill="#F9ECD7"/>
<path fill-rule="evenodd" clip-rule="evenodd" d="M362.653 184.19C381.955 178.304 402.375 189.177 408.262 208.483C414.149 227.789 403.274 248.206 383.97 254.092C364.667 259.979 344.247 249.105 338.36 229.8C332.473 210.496 343.348 190.077 362.653 184.19Z" fill="#F9ECD7"/>
<path d="M584.258 300.762C575.898 307.659 565.697 314.245 554.529 317.651C531.393 324.706 514.316 317.312 506.071 290.276L481.581 209.966L550.986 188.801L540.438 154.213L471.033 175.378L450.058 106.598L408.573 119.249C428.683 185.193 444.174 235.991 464.587 302.929C479.257 351.036 513.516 371.875 561.382 357.278C574.146 353.385 587.222 347.659 601.758 336.71L584.257 300.765L584.258 300.762Z" fill="#F9ECD7"/>
<path fill-rule="evenodd" clip-rule="evenodd" d="M49.1651 375.191C68.4663 369.305 88.8865 380.178 94.7738 399.484C100.661 418.79 89.7853 439.207 70.4821 445.093C51.1789 450.98 30.7587 440.107 24.8714 420.801C18.9846 401.497 29.8599 381.078 49.1651 375.191Z" fill="#F9ECD7"/>
<path d="M270.769 491.763C262.409 498.659 252.208 505.246 241.039 508.652C217.904 515.707 200.827 508.312 192.582 481.277L168.091 400.967L237.496 379.802L226.948 345.213L157.544 366.379L136.569 297.598L95.084 310.249C115.194 376.193 130.685 426.991 151.098 493.93C165.768 542.036 200.027 562.875 247.892 548.279C260.657 544.386 273.733 538.66 288.269 527.71L270.768 491.765L270.769 491.763Z" fill="#F9ECD7"/>
</svg>