<svg width="122" height="27" viewBox="0 0 122 27" fill="none" xmlns="http://www.w3.org/2000/svg">
<path d="M23.3155 5.31152C19.2859 5.31152 16.4961 8.50999 16.4961 12.6266C16.4961 16.7726 19.3141 19.9414 23.4845 19.9414C26.3588 19.9414 28.6977 18.4608 29.5429 15.9433H26.3306C25.7952 16.8319 24.8089 17.2464 23.5127 17.2464C21.033 17.2464 19.7649 15.6473 19.483 13.5446H29.8812C30.4447 8.83586 27.7113 5.31165 23.3155 5.31165V5.31152ZM23.3436 7.91762C25.4007 7.91762 26.8096 9.13185 26.9787 11.4122H19.5395C19.8776 9.4576 21.1457 7.91762 23.3436 7.91762Z" fill="#08A05C"/>
<path d="M47.7274 5.31152C45.783 5.31152 44.2896 5.99264 42.9933 7.32538C42.007 5.99251 40.4854 5.31152 38.5974 5.31152C36.8503 5.31152 35.6669 5.90376 34.6806 6.85151V5.66689H31.7501V19.5861H34.6806V10.0796C35.6387 8.68774 36.8786 8.09537 38.2593 8.09537C39.9783 8.09537 41.2181 8.98373 41.2181 11.442V19.5861H44.1205V11.442C44.1205 10.9385 44.0923 10.435 44.0078 9.99072C44.9941 8.59886 46.2339 8.0955 47.5301 8.0955C49.4182 8.0955 50.658 9.16161 50.658 11.6196V19.5861H53.5605V11.6196C53.5605 7.50313 51.1935 5.31165 47.7273 5.31165L47.7274 5.31152Z" fill="#08A05C"/>
<path d="M63.3706 5.33997C61.6799 5.33997 60.2428 5.87309 59.1438 6.76146V5.66572H56.2133V26.4556H59.1438V18.4891C60.2428 19.3774 61.68 19.9106 63.3706 19.9106C67.0903 19.9106 70.1055 16.6825 70.1055 12.6253C70.1055 8.56793 67.0902 5.33984 63.3706 5.33984V5.33997ZM62.9479 17.2452C61.4826 17.2452 60.13 16.653 59.1437 15.1722V10.0784C60.13 8.59756 61.4826 8.00545 62.9479 8.00545C65.3995 8.00545 67.1747 10.1378 67.1747 12.6254C67.1747 15.113 65.3995 17.2452 62.9479 17.2452Z" fill="#08A05C"/>
<path d="M78.5658 4.89575C74.2543 4.89575 71.1547 8.06459 71.1547 12.3883C71.1547 16.7714 74.2543 20.0291 78.5658 20.0291C82.8771 20.0291 85.9769 16.7715 85.9769 12.3883C85.9769 8.06446 82.8773 4.89575 78.5658 4.89575ZM78.5938 15.883C76.734 15.883 75.4942 14.343 75.4942 12.418C75.4942 10.5522 76.7341 9.04183 78.5938 9.04183C80.4255 9.04183 81.6654 10.5522 81.6654 12.418C81.6654 14.343 80.4255 15.883 78.5938 15.883Z" fill="#08A05C"/>
<path d="M107.782 5.22266H103.019L100.878 12.8633L98.5671 5.22266H94.96L92.6493 12.9226L90.5077 5.22266H85.7174L90.4232 19.586H94.5657L96.7635 12.1823L98.9333 19.586H103.104L107.782 5.22266Z" fill="#08A05C"/>
<path d="M116.11 4.77834C114.644 4.77834 113.433 5.28183 112.334 6.19982V5.22245H107.769V19.5858H112.334V10.5828C113.123 9.63502 114.025 9.13153 114.87 9.13153C116.363 9.13153 117.35 10.1088 117.35 12.1522V19.5857H121.943V11.3822C121.943 7.29529 119.576 4.77808 116.11 4.77808V4.77834Z" fill="#08A05C"/>
<path fill-rule="evenodd" clip-rule="evenodd" d="M2.60011 4.01416C3.96366 4.01416 5.06921 5.17959 5.06921 6.61767C5.06921 8.05576 3.96381 9.22119 2.60011 9.22119C1.23641 9.22119 0.130859 8.05576 0.130859 6.61767C0.130859 5.17974 1.23626 4.01416 2.60011 4.01416Z" fill="#08A05C"/>
<path d="M14.6258 16.5648C13.9496 16.861 13.1604 17.0979 12.3714 17.0979C10.7369 17.0979 9.77889 16.239 9.77889 14.2252V8.24288H14.6821V5.66641H9.77889V0.542969H6.84814C6.84814 5.45514 6.84814 9.23909 6.84814 14.2253C6.84814 17.8088 8.65172 19.941 12.0332 19.941C12.935 19.941 13.8931 19.8225 15.0484 19.3784L14.6257 16.5649L14.6258 16.5648Z" fill="#08A05C"/>
</svg>
