<svg width="18" height="18" viewBox="0 0 18 18" fill="none" xmlns="http://www.w3.org/2000/svg">
<path fill-rule="evenodd" clip-rule="evenodd" d="M2.74043 8.50349C3.04042 8.59751 3.35793 9.56065 3.70547 9.9582C4.09056 10.3987 5.16161 10.1298 4.81046 11.1279C4.67291 11.5188 4.06234 12.5294 4.25847 12.9135C4.41495 13.2199 4.52725 13.3632 4.62211 13.7612C4.69253 14.0565 4.74884 14.5779 4.64023 14.8498C4.67072 14.8826 4.6545 14.8688 4.69391 14.9019C4.71969 14.9235 4.72204 14.9248 4.75119 14.9455C5.4612 15.4502 6.20623 15.7412 7.09688 15.8896C8.09083 15.6857 8.80476 15.3913 9.48441 14.8887C9.8416 14.6245 10.0914 14.4029 10.3603 14.0925C10.5632 13.8584 10.9522 13.415 11.0623 13.0724C10.9096 13.1547 10.9341 13.2528 10.5371 13.4842C8.9593 14.4041 9.3366 11.9178 9.24895 10.735C9.17728 9.76776 8.93392 9.79633 8.41019 9.88065C7.90937 9.96128 7.32649 10.1039 6.82701 9.94899C6.03645 9.70389 5.699 8.4836 6.48988 7.62763C6.87663 7.20902 7.28814 7.02703 7.44519 6.81943C7.04373 6.86272 6.62322 6.8361 6.252 6.76144C6.18385 6.74573 6.12418 6.73161 6.06142 6.71583C6.03933 6.71023 6.00232 6.70081 5.98115 6.69485C5.9291 6.6802 5.92874 6.68044 5.89882 6.669L5.42909 6.4969C5.30504 6.42723 5.13538 6.34007 4.98595 6.25128C4.87585 6.18583 4.68414 6.049 4.5748 6.00623C4.5206 6.08097 4.3732 6.17552 4.28965 6.24584C4.06936 6.43121 3.67766 6.87591 3.50788 7.10267C3.03106 7.73939 3.05915 7.84644 2.74051 8.50345L2.74043 8.50349Z" fill="#89C8FC"/>
<path fill-rule="evenodd" clip-rule="evenodd" d="M5.92752 0.826358C6.14335 1.03368 6.85304 1.9844 7.08282 2.28338L8.22761 3.76212L6.31253 3.44978C6.22492 3.41293 6.04711 3.14414 5.95063 3.02261L4.61984 1.28539C4.47382 1.2959 4.21262 1.42733 4.14886 1.51551L5.53587 3.32228L2.28181 2.77702L2.07859 2.98381L2.19409 3.20878C2.19944 3.21621 2.21614 3.2378 2.22092 3.2438L2.24906 3.27541L5.45192 3.81223L3.68055 5.21983C3.74257 5.29182 3.78084 5.32558 3.8457 5.39253C3.86634 5.41384 3.91065 5.46391 3.92609 5.4769C4.04001 5.57274 3.93785 5.52932 4.05063 5.53079L5.96936 4.05822C6.21949 3.85078 6.30276 3.95454 6.88381 4.05331C7.29597 4.12339 7.80486 4.18097 8.19704 4.28307C7.7494 4.6637 7.28288 4.99612 6.8153 5.3647C6.58329 5.54759 6.34658 5.72861 6.11384 5.90833C5.99226 6.00227 5.88759 6.0803 5.76314 6.18021L5.48439 6.39357C5.43156 6.45205 5.44316 6.41029 5.42897 6.49697L5.8987 6.66906C6.06009 6.60259 8.35239 4.81692 8.70468 4.5336C8.9336 4.34945 8.88341 4.38942 9.32213 4.4651C9.4945 4.49485 9.85462 4.57954 10.0083 4.57183C10.3428 4.66512 11.286 4.74765 11.4977 4.85917L12.1086 5.31791C12.3416 5.49808 12.7454 5.90099 12.9321 6.13294C13.0205 6.24274 13.0871 6.32926 13.1752 6.44697C14.802 8.61932 14.9786 11.704 13.4516 14.0071C13.2109 14.3701 12.7927 14.9048 12.4608 15.2121C12.3941 15.2738 12.3801 15.2728 12.3145 15.3279C12.2523 15.3803 12.2263 15.4199 12.1642 15.4725C11.217 16.2744 9.9734 16.835 8.72892 16.9847C7.10665 17.1798 5.4766 16.7666 4.28637 15.9675C3.3482 15.3376 2.74254 14.6766 2.14422 13.6855C0.849394 11.5404 1.47626 9.33765 1.32144 9.13196C1.23995 9.02365 1.00385 9.0243 0.917947 9.13325C0.854624 9.2136 0.824746 9.47046 0.813193 9.58587C0.793045 9.78747 0.780234 9.99093 0.775085 10.1949V10.6043C0.799247 11.5632 0.995012 12.5155 1.3861 13.3296C1.45067 13.4641 1.49742 13.5753 1.56796 13.7049C1.78354 14.1012 1.94274 14.3637 2.21626 14.7281L3.27811 15.8619C4.03247 16.4519 4.43563 16.7161 5.33719 17.0795C6.30146 17.4683 7.11602 17.5394 8.1492 17.5477H8.29113C9.40467 17.5318 10.6907 17.0599 11.5781 16.5251C12.9062 15.7248 14.0579 14.398 14.5776 12.9047C14.6805 12.6092 14.7583 12.365 14.8339 12.0464C15.045 11.1559 15.1082 9.9652 14.8931 9.05534C14.7446 8.4273 14.6038 7.89114 14.3356 7.38378C14.4055 7.33131 14.3851 7.34048 14.45 7.3182C14.6226 7.04373 14.7252 6.58129 14.8725 6.33055C15.0019 6.05413 15.1098 5.7676 15.225 5.48696C15.3058 5.28987 15.2923 5.22125 15.4718 5.14314C15.6171 5.07987 15.7886 5.02465 15.9089 4.95428C16.1527 4.87722 17.4011 4.35822 17.5456 4.24971V3.77445C17.3579 3.74978 16.3471 4.26059 16.0552 4.34609L15.6435 4.53498L16.0266 3.58316L16.8196 1.67393C16.8399 1.63108 16.8375 1.6381 16.8584 1.60097L16.8905 1.55102C16.8674 1.49437 16.8494 1.47314 16.8196 1.42421C16.7796 1.35879 16.7597 1.31501 16.7268 1.25264C16.644 1.29241 16.5254 1.31026 16.4305 1.351C16.2193 1.74656 15.9966 2.42159 15.8523 2.6951L15.1218 4.40923C14.9446 4.17452 14.4408 2.65115 14.3029 2.4879L13.945 2.85916L14.7444 4.84375C14.8613 5.12244 14.8655 5.08024 14.7413 5.36336C14.665 5.53716 14.5997 5.70041 14.5279 5.87067C14.4179 6.13176 14.2355 6.64496 14.1062 6.85224L13.9885 7.15386L13.8773 6.934L13.5489 6.07227L13.5168 6.00669C13.4207 5.9423 13.3787 5.85639 13.2957 5.76898L12.8536 5.29352C12.4099 4.84537 12.0527 4.64905 11.5781 4.30177C11.5518 4.31135 11.5982 4.31135 11.494 4.31975C11.4846 4.32052 11.4757 4.32113 11.4659 4.32129L10.5967 4.17432C10.2971 4.12465 9.93306 4.05157 9.66611 4.02697C8.87129 3.83792 9.13022 4.09214 8.71149 3.57046C8.50214 3.30962 8.31079 3.05535 8.10802 2.79792L6.91304 1.24911C6.86435 1.20252 6.77281 1.07324 6.72088 1.00624C6.67227 0.943509 6.5764 0.828833 6.5329 0.760742C6.28228 0.760742 6.12917 0.821205 5.92744 0.826318L5.92752 0.826358Z" fill="#09A66B"/>
<path fill-rule="evenodd" clip-rule="evenodd" d="M7.44512 6.81949C7.28807 7.02709 6.87659 7.20908 6.48981 7.6277C5.69897 8.48367 6.03637 9.70391 6.82693 9.94905C7.32642 10.1039 7.9093 9.96134 8.41012 9.88071C8.93385 9.79639 9.17717 9.76782 9.24888 10.7351C9.33653 11.9178 8.95923 14.4041 10.5371 13.4843C10.9341 13.2529 10.9095 13.1547 11.0622 13.0725C11.3704 12.7005 11.5873 12.4394 11.6181 11.782C11.5154 11.5981 11.4842 11.047 11.4809 10.7936C11.4771 10.5061 11.5608 10.0813 11.7275 9.94097C11.7244 9.16438 11.3484 8.24742 11.0316 7.67521C10.8191 7.29134 10.1083 6.32507 9.68383 6.11755C9.59261 6.12758 8.86307 6.47424 8.65109 6.54627C8.28785 6.66967 7.85595 6.79465 7.44504 6.81949H7.44512Z" fill="#BAEB6C"/>
<path fill-rule="evenodd" clip-rule="evenodd" d="M11.7637 9.94091C11.7302 10.0271 11.7534 10.7266 11.7362 10.9189C11.7112 11.1995 11.6224 11.5236 11.6182 11.7819C11.5874 12.4393 11.3705 12.7004 11.0623 13.0724C10.9522 13.4149 10.5631 13.8584 10.3603 14.0925C10.0914 14.4028 9.84161 14.6245 9.48442 14.8887C8.80478 15.3912 8.09084 15.6856 7.09689 15.8896C7.35485 15.9832 8.3783 15.9417 8.69658 15.903C9.67273 15.7841 10.9146 15.2176 11.592 14.5389C11.7804 14.3502 11.6526 14.5361 11.9216 14.2131C12.2326 13.8394 12.4351 13.7061 12.7422 13.1C12.9492 12.6915 13.1189 12.3593 13.242 11.8626C13.415 11.1643 13.4869 10.3011 13.3628 9.53793C13.3188 9.26743 13.249 9.06839 13.2148 8.82629C13.1129 8.9303 12.9396 8.99563 12.7936 9.08462C12.6548 9.1691 12.5349 9.24174 12.4112 9.32493C12.1899 9.47373 11.8441 9.71481 11.7638 9.94091H11.7637Z" fill="#60B6FE"/>
<path fill-rule="evenodd" clip-rule="evenodd" d="M4.64023 14.8499C4.7488 14.578 4.69253 14.0566 4.62211 13.7612C4.52729 13.3633 4.415 13.22 4.25848 12.9135C4.06235 12.5295 4.67291 11.5188 4.81046 11.1279C5.16161 10.1299 4.09056 10.3987 3.70548 9.95825C3.35793 9.56066 3.04043 8.59756 2.74044 8.50354C2.39078 9.1694 2.35118 10.6471 2.49213 11.4356C2.64582 12.2952 3.02332 13.0916 3.51713 13.7539C3.74841 14.0641 4.31766 14.6932 4.64023 14.8499V14.8499Z" fill="#BAEB6C"/>
<path fill-rule="evenodd" clip-rule="evenodd" d="M9.6839 6.11752C10.1083 6.325 10.8192 7.29131 11.0317 7.67518C11.3484 8.24739 11.7244 9.16435 11.7276 9.94094H11.7638C11.8441 9.71484 12.1898 9.4738 12.4112 9.32496C12.5349 9.24181 12.6548 9.16918 12.7935 9.08465C12.9396 8.99566 13.1128 8.93033 13.2148 8.82632C12.9451 8.16846 12.9361 7.98573 12.495 7.32458C12.1134 6.75266 11.5996 6.22279 11.0276 5.8426C10.8764 5.74213 10.7215 5.65606 10.5689 5.55786C10.5198 5.58095 9.74576 6.04168 9.6839 6.11748V6.11752Z" fill="#96D629"/>
<path fill-rule="evenodd" clip-rule="evenodd" d="M6.91311 1.24911C7.34814 1.37608 8.2452 2.18721 8.47218 2.43304C8.681 2.65922 8.90206 2.91138 9.10204 3.18026C9.24482 3.37223 9.58527 3.79843 9.66619 4.02693C9.93314 4.05152 10.2972 4.12461 10.5968 4.17427L11.466 4.32125C11.4757 4.32109 11.4847 4.32048 11.4941 4.31971C11.5983 4.31127 11.5519 4.31127 11.5781 4.30173L10.6957 3.02727C10.6148 2.92514 10.5475 2.84106 10.461 2.73762L9.65974 1.93311C9.09908 1.43691 8.28971 0.979097 7.55339 0.828387C7.25814 0.767925 7.03797 0.76131 6.724 0.760742H6.55272H6.53297C6.57647 0.828793 6.67239 0.943509 6.72096 1.00624C6.77289 1.07324 6.86442 1.20252 6.91311 1.24911V1.24911Z" fill="#07B128"/>
<path fill-rule="evenodd" clip-rule="evenodd" d="M4.05063 5.53073C4.11995 5.66903 4.18429 5.6924 4.30234 5.78752C4.40113 5.86713 4.4861 5.93007 4.57472 6.0062C4.68406 6.04901 4.87577 6.18584 4.98587 6.25125C5.1353 6.34004 5.30496 6.4272 5.42901 6.49687C5.4432 6.4102 5.4316 6.45195 5.48443 6.39348L5.76318 6.18012C5.88763 6.08021 5.9923 6.00218 6.11388 5.90824C6.34658 5.72851 6.58333 5.54749 6.81533 5.3646C7.28292 4.99603 7.74944 4.6636 8.19708 4.28297C7.8049 4.18088 7.29601 4.1233 6.88385 4.05322C6.30276 3.95441 6.21949 3.85069 5.9694 4.05813L4.05067 5.53069L4.05063 5.53073Z" fill="#47CA5C"/>
<path fill-rule="evenodd" clip-rule="evenodd" d="M4.61987 1.28532L5.95066 3.02254C6.0471 3.14408 6.22495 3.41291 6.31256 3.44972L8.22764 3.76205L7.08285 2.28332C6.85307 1.98433 6.14338 1.03361 5.92755 0.826294C5.80139 0.877991 4.76253 1.1142 4.61991 1.28532H4.61987Z" fill="#47CA5C"/>
<path fill-rule="evenodd" clip-rule="evenodd" d="M13.5168 6.00671L13.549 6.07229L13.8773 6.93402L14.1062 6.85221C14.2355 6.64497 14.4179 6.13173 14.5279 5.87065C14.5997 5.70038 14.6651 5.53717 14.7413 5.36333C14.8655 5.08021 14.8614 5.12238 14.7444 4.84372L13.945 2.85913C13.7798 3.03861 13.6713 3.2383 13.5601 3.45982C13.2539 4.06968 13.2626 4.94541 13.4182 5.58083C13.4491 5.70736 13.5058 5.87434 13.5168 6.00667V6.00671Z" fill="#47CA5C"/>
<path fill-rule="evenodd" clip-rule="evenodd" d="M6.25192 6.76145C6.62314 6.83612 7.04365 6.86274 7.44511 6.81944C7.85602 6.79465 8.28793 6.66962 8.65116 6.54622C8.86314 6.47419 9.59269 6.12753 9.6839 6.11751C9.74577 6.04171 10.5198 5.58097 10.5689 5.55788C10.7374 5.43732 10.8748 5.35 11.032 5.22429C11.1084 5.16317 11.1712 5.11229 11.2492 5.04829C11.3232 4.98755 11.4235 4.89949 11.4977 4.85912C11.286 4.74761 10.3428 4.66507 10.0083 4.57178C9.95965 4.7304 9.76267 4.8678 9.63522 4.97302C7.73963 6.53762 6.42993 6.64913 6.25188 6.76141L6.25192 6.76145Z" fill="#07B128"/>
<path fill-rule="evenodd" clip-rule="evenodd" d="M15.909 4.9542C15.8624 5.41254 15.135 6.2328 14.8725 6.33048C14.7253 6.58121 14.6227 7.04361 14.45 7.31812C15.3638 6.9786 15.6377 6.90881 16.4651 6.26924C17.0721 5.80003 17.4913 5.06669 17.5457 4.24963C17.4012 4.35814 16.1527 4.87714 15.909 4.9542H15.909Z" fill="#07B128"/>
<path fill-rule="evenodd" clip-rule="evenodd" d="M5.89879 6.66901C5.92871 6.68046 5.92903 6.68021 5.98112 6.69486C6.00229 6.70083 6.0393 6.71024 6.06139 6.71584C6.12415 6.73163 6.18378 6.74575 6.25197 6.76145C6.43002 6.64917 7.73968 6.53766 9.63531 4.97306C9.76276 4.86784 9.95974 4.73044 10.0084 4.57182C9.85471 4.57953 9.49463 4.49484 9.32226 4.4651C8.8835 4.38942 8.93373 4.34945 8.7048 4.53359C8.35252 4.81691 6.06022 6.60255 5.89883 6.66905L5.89879 6.66901Z" fill="#47CA5C"/>
<path fill-rule="evenodd" clip-rule="evenodd" d="M3.68059 5.21981L5.45196 3.81221L2.2491 3.27539C2.428 3.67497 3.34484 4.94095 3.68059 5.21981Z" fill="#47CA5C"/>
<path fill-rule="evenodd" clip-rule="evenodd" d="M2.28186 2.77702L5.53592 3.32228L4.1489 1.5155C3.88341 1.57499 2.95927 2.23967 2.71219 2.43741L2.28186 2.77702V2.77702Z" fill="#47CA5C"/>
<path fill-rule="evenodd" clip-rule="evenodd" d="M16.0267 3.58317C16.1048 3.78862 16.0751 4.12153 16.0553 4.3461C16.3472 4.2606 17.358 3.74979 17.5457 3.77446C17.5098 3.17548 17.3267 2.59341 17.12 2.07226C17.0826 1.97796 17.0571 1.91766 17.0108 1.82116C16.9607 1.71671 16.9493 1.66258 16.8906 1.55103L16.8585 1.60098C16.8377 1.63811 16.84 1.63109 16.8197 1.67394L16.0267 3.58317H16.0267Z" fill="#07B128"/>
<path fill-rule="evenodd" clip-rule="evenodd" d="M14.303 2.48782C14.4408 2.65107 14.9447 4.17444 15.1218 4.40915L15.8524 2.69502C15.7896 2.3346 15.6062 2.02352 15.4978 1.71155C15.2846 1.79948 15.0488 1.94337 14.8534 2.06576C14.7459 2.13308 14.6578 2.19683 14.5646 2.26853C14.4942 2.32271 14.3552 2.42614 14.3029 2.48782H14.303Z" fill="#47CA5C"/>
<path fill-rule="evenodd" clip-rule="evenodd" d="M9.6662 4.02697C9.58529 3.79847 9.24484 3.37227 9.10206 3.18029C8.90208 2.91142 8.68102 2.65926 8.4722 2.43307C8.24526 2.18725 7.34816 1.37612 6.91313 1.24915L8.10811 2.79796C8.31089 3.05539 8.50224 3.30966 8.71158 3.5705C9.13027 4.09218 8.87139 3.83795 9.6662 4.02701V4.02697Z" fill="#47CA5C"/>
<path fill-rule="evenodd" clip-rule="evenodd" d="M15.4978 1.71158C15.6061 2.02355 15.7896 2.33462 15.8523 2.69505C15.9967 2.42154 16.2193 1.74651 16.4305 1.35095C16.2575 1.37863 15.6065 1.63119 15.4978 1.71162V1.71158Z" fill="#07B128"/>
<path fill-rule="evenodd" clip-rule="evenodd" d="M14.8726 6.3305C15.135 6.23282 15.8624 5.41256 15.909 4.95422C15.7887 5.02459 15.6172 5.07977 15.4719 5.14308C15.2924 5.22123 15.3059 5.28981 15.225 5.4869C15.1099 5.76755 15.002 6.05407 14.8726 6.3305V6.3305Z" fill="#47CA5C"/>
<path fill-rule="evenodd" clip-rule="evenodd" d="M11.6182 11.7819C11.6224 11.5236 11.7112 11.1995 11.7362 10.9189C11.7533 10.7266 11.7302 10.0271 11.7637 9.94092H11.7275C11.5609 10.0812 11.4772 10.506 11.4809 10.7935C11.4843 11.0469 11.5154 11.5981 11.6181 11.7819L11.6182 11.7819Z" fill="#89C8FC"/>
<path fill-rule="evenodd" clip-rule="evenodd" d="M16.0553 4.34605C16.0751 4.12149 16.1048 3.78858 16.0267 3.58313L15.6436 4.53495L16.0553 4.34605V4.34605Z" fill="#47CA5C"/>
<path fill-rule="evenodd" clip-rule="evenodd" d="M13.8773 6.93417L13.9888 7.15453L14.1067 6.85217L13.8773 6.93417Z" fill="#0AB22C"/>
</svg>
