<svg width="50" height="13" viewBox="0 0 50 13" fill="none" xmlns="http://www.w3.org/2000/svg">
<path d="M10.0807 12.6294H7.31936L4.40074 7.61357H2.4783V12.6294H0.101461L0.0839844 0.395673H4.80271C6.00278 0.395673 6.95817 0.727731 7.66889 1.39185C8.39126 2.04431 8.75245 2.91815 8.75245 4.01336C8.75245 4.70078 8.58351 5.32412 8.24563 5.88337C7.90774 6.43098 7.43587 6.85624 6.83001 7.15917L10.0807 12.6294ZM2.4783 2.44045V5.56879H4.43569C5.04155 5.56879 5.51343 5.4348 5.85131 5.16682C6.18919 4.8872 6.35814 4.50271 6.35814 4.01336C6.35814 3.52401 6.18919 3.13952 5.85131 2.85989C5.51343 2.58027 5.04155 2.44045 4.43569 2.44045H2.4783Z" fill="black"/>
<path d="M18.2277 7.92815C18.2277 8.27769 18.2161 8.56896 18.1928 8.80199H11.6565C11.7497 9.4661 12.0002 9.98458 12.408 10.3574C12.8157 10.7303 13.3342 10.9167 13.9634 10.9167C14.476 10.9167 14.9071 10.8002 15.2567 10.5671C15.6062 10.3341 15.8392 10.0021 15.9557 9.57096L18.018 10.1302C17.7733 10.9575 17.2898 11.6041 16.5674 12.0701C15.8451 12.5362 14.9654 12.7692 13.9284 12.7692C12.5419 12.7692 11.4467 12.3206 10.6428 11.4235C9.85053 10.5147 9.45439 9.44863 9.45439 8.22526C9.45439 6.99023 9.83305 5.92415 10.5904 5.02701C11.3594 4.12987 12.4313 3.6813 13.8061 3.6813C15.2042 3.6813 16.2878 4.11239 17.0568 4.97458C17.8374 5.82512 18.2277 6.80964 18.2277 7.92815ZM11.7089 7.19413H15.8684C15.8101 6.64652 15.6062 6.20378 15.2567 5.86589C14.9071 5.52801 14.4236 5.35907 13.8061 5.35907C13.2585 5.35907 12.7983 5.51636 12.4254 5.83094C12.0642 6.14552 11.8254 6.59992 11.7089 7.19413Z" fill="black"/>
<path d="M27.3211 7.92815C27.3211 8.27769 27.3094 8.56896 27.2861 8.80199H20.7498C20.843 9.4661 21.0935 9.98458 21.5013 10.3574C21.9091 10.7303 22.4276 10.9167 23.0568 10.9167C23.5694 10.9167 24.0005 10.8002 24.35 10.5671C24.6996 10.3341 24.9326 10.0021 25.0491 9.57096L27.1114 10.1302C26.8667 10.9575 26.3832 11.6041 25.6608 12.0701C24.9384 12.5362 24.0588 12.7692 23.0218 12.7692C21.6353 12.7692 20.5401 12.3206 19.7362 11.4235C18.9439 10.5147 18.5478 9.44863 18.5478 8.22526C18.5478 6.99023 18.9264 5.92415 19.6837 5.02701C20.4527 4.12987 21.5246 3.6813 22.8995 3.6813C24.2976 3.6813 25.3812 4.11239 26.1501 4.97458C26.9308 5.82512 27.3211 6.80964 27.3211 7.92815ZM20.8023 7.19413H24.9617C24.9035 6.64652 24.6996 6.20378 24.35 5.86589C24.0005 5.52801 23.517 5.35907 22.8995 5.35907C22.3519 5.35907 21.8916 5.51636 21.5188 5.83094C21.1576 6.14552 20.9188 6.59992 20.8023 7.19413Z" fill="black"/>
<path d="M31.8355 12.7692C30.5306 12.7692 29.5053 12.3556 28.7596 11.5284C28.014 10.6895 27.6411 9.58844 27.6411 8.22526C27.6411 6.86207 28.014 5.76686 28.7596 4.93963C29.5053 4.10074 30.519 3.6813 31.8006 3.6813C32.9308 3.6813 33.7813 4.05414 34.3522 4.79981V0.255859H36.5543V12.6294H34.3522V11.6157C34.1308 11.9653 33.7929 12.2449 33.3385 12.4546C32.8842 12.6643 32.3832 12.7692 31.8355 12.7692ZM32.1501 10.8642C32.8608 10.8642 33.4259 10.6254 33.8454 10.1477C34.2765 9.65835 34.492 9.01753 34.492 8.22526C34.492 7.43298 34.2765 6.79799 33.8454 6.32029C33.4259 5.83094 32.8608 5.58627 32.1501 5.58627C31.4511 5.58627 30.886 5.83094 30.4549 6.32029C30.0354 6.79799 29.8257 7.43298 29.8257 8.22526C29.8257 9.01753 30.0354 9.65835 30.4549 10.1477C30.886 10.6254 31.4511 10.8642 32.1501 10.8642Z" fill="black"/>
<path d="M41.5433 12.7692C40.2384 12.7692 39.2131 12.3556 38.4674 11.5284C37.7218 10.6895 37.3489 9.58844 37.3489 8.22526C37.3489 6.86207 37.7218 5.76686 38.4674 4.93963C39.2131 4.10074 40.2267 3.6813 41.5084 3.6813C42.6385 3.6813 43.4891 4.05414 44.06 4.79981V0.255859H46.2621V12.6294H44.06V11.6157C43.8386 11.9653 43.5007 12.2449 43.0463 12.4546C42.5919 12.6643 42.0909 12.7692 41.5433 12.7692ZM41.8579 10.8642C42.5686 10.8642 43.1337 10.6254 43.5532 10.1477C43.9843 9.65835 44.1998 9.01753 44.1998 8.22526C44.1998 7.43298 43.9843 6.79799 43.5532 6.32029C43.1337 5.83094 42.5686 5.58627 41.8579 5.58627C41.1588 5.58627 40.5938 5.83094 40.1627 6.32029C39.7432 6.79799 39.5335 7.43298 39.5335 8.22526C39.5335 9.01753 39.7432 9.65835 40.1627 10.1477C40.5938 10.6254 41.1588 10.8642 41.8579 10.8642Z" fill="black"/>
<path d="M47.5286 12.6294V3.82112H49.7306V12.6294H47.5286Z" fill="black"/>
<circle cx="48.5765" cy="1.59603" r="1.34017" fill="#04D419"/>
</svg>
